{"asset":{"generator":"Khronos glTF Spline I/O v0.0.1","version":"2.0"},"scenes":[{"nodes":[0]}],"nodes":[{"name":"","children":[1,2,3,4,5,6,7,8,9,10]},{"name":"","camera":0,"translation":[0,0,1000],"rotation":[0,0,0,1]},{"name":"Sphere","matrix":[1,0,0,0,0,1,0,0,0,0,1,0,118.19108301725342,-131.19981264056145,196.4090146389966,1],"mesh":0},{"name":"Sphere 2","matrix":[1,0,0,0,0,1,0,0,0,0,1,0,-17.808978017902668,-76.89217484922288,-36.47598509731932,1],"mesh":1},{"name":"Sphere 3","matrix":[1,0,0,0,0,1,0,0,0,0,1,0,243.73069406592197,-5.59977601946764,-155.08507730578935,1],"mesh":2},{"name":"Sphere 5","matrix":[1,0,0,0,0,1,0,0,0,0,1,0,-172.86940359032812,-197.99983095110832,-155.08507730578935,1],"mesh":3},{"name":"Sphere 6","matrix":[1,0,0,0,0,1,0,0,0,0,1,0,27.93064523779674,191.80021787701673,-155.08507730578935,1],"mesh":4},{"name":"Sphere 7","matrix":[1,0,0,0,0,0.9161063434960517,0.4009353656218096,0,0,-0.4009353656218096,0.9161063434960517,0,-198.8623459948052,16.235601735563147,66.60639304501984,1],"mesh":5},{"name":"Sphere 4","matrix":[1,0,0,0,0,1,0,0,0,0,1,0,-142.40889256868417,34.60022092877443,259.7015166230443,1],"mesh":6},{"name":"Directional Light","translation":[200,300,-10],"rotation":[-0.6860835764399501,0.20772939239405364,-0.2020478962193753,0.6673188692883552],"extensions":{"KHR_lights_punctual":{"light":0}}},{"name":"Point Light","translation":[-946.0511769445817,-562.3491896271851,-135.63335842189986],"extensions":{"KHR_lights_punctual":{"light":1}}}],"cameras":[{"type":"perspective","perspective":{"aspectRatio":2.5660731021555763,"yfov":0.7853981633974483,"znear":5,"zfar":100000}}],"meshes":[{"primitives":[{"attributes":{"POSITION":1,"NORMAL":2,"TEXCOORD_0":3},"indices":0,"material":0}]},{"primitives":[{"attributes":{"POSITION":5,"NORMAL":6,"TEXCOORD_0":7},"indices":4,"material":1}]},{"primitives":[{"attributes":{"POSITION":9,"NORMAL":10,"TEXCOORD_0":11},"indices":8,"material":2}]},{"primitives":[{"attributes":{"POSITION":13,"NORMAL":14,"TEXCOORD_0":15},"indices":12,"material":2}]},{"primitives":[{"attributes":{"POSITION":17,"NORMAL":18,"TEXCOORD_0":19},"indices":16,"material":2}]},{"primitives":[{"attributes":{"POSITION":21,"NORMAL":22,"TEXCOORD_0":23},"indices":20,"material":1}]},{"primitives":[{"attributes":{"POSITION":25,"NORMAL":26,"TEXCOORD_0":27},"indices":24,"material":0}]}],"materials":[{"pbrMetallicRoughness":{"baseColorFactor":[0.2823529411764706,0.2823529411764706,0.30196078431372547,1],"metallicFactor":0,"roughnessFactor":0.995},"doubleSided":false},{"pbrMetallicRoughness":{"baseColorFactor":[0.4035709926060268,0.4035709926060268,1,1],"metallicFactor":0,"roughnessFactor":0.995},"doubleSided":false},{"pbrMetallicRoughness":{"baseColorFactor":[0.7571422031947544,0.7571422031947544,1,1],"metallicFactor":0,"roughnessFactor":0.995},"doubleSided":false}],"buffers":[{"uri":"data:application/octet-stream;base64,","byteLength":183584},{"uri":"data:application/octet-stream;base64,","byteLength":183584},{"uri":"data:application/octet-stream;base64,","byteLength":183584},{"uri":"data:application/octet-stream;base64,","byteLength":183584},{"uri":"data:application/octet-stream;base64,","byteLength":183584},{"uri":"data:application/octet-stream;base64,","byteLength":183584},{"uri":"data:application/octet-stream;base64,","byteLength":183584}],"bufferViews":[{"buffer":0,"byteOffset":0,"byteLength":48384,"target":34963},{"buffer":0,"byteOffset":48384,"byteLength":50700,"target":34962},{"buffer":0,"byteOffset":99084,"byteLength":50700,"target":34962},{"buffer":0,"byteOffset":149784,"byteLength":33800,"target":34962},{"buffer":1,"byteOffset":0,"byteLength":48384,"target":34963},{"buffer":1,"byteOffset":48384,"byteLength":50700,"target":34962},{"buffer":1,"byteOffset":99084,"byteLength":50700,"target":34962},{"buffer":1,"byteOffset":149784,"byteLength":33800,"target":34962},{"buffer":2,"byteOffset":0,"byteLength":48384,"target":34963},{"buffer":2,"byteOffset":48384,"byteLength":50700,"target":34962},{"buffer":2,"byteOffset":99084,"byteLength":50700,"target":34962},{"buffer":2,"byteOffset":149784,"byteLength":33800,"target":34962},{"buffer":3,"byteOffset":0,"byteLength":48384,"target":34963},{"buffer":3,"byteOffset":48384,"byteLength":50700,"target":34962},{"buffer":3,"byteOffset":99084,"byteLength":50700,"target":34962},{"buffer":3,"byteOffset":149784,"byteLength":33800,"target":34962},{"buffer":4,"byteOffset":0,"byteLength":48384,"target":34963},{"buffer":4,"byteOffset":48384,"byteLength":50700,"target":34962},{"buffer":4,"byteOffset":99084,"byteLength":50700,"target":34962},{"buffer":4,"byteOffset":149784,"byteLength":33800,"target":34962},{"buffer":5,"byteOffset":0,"byteLength":48384,"target":34963},{"buffer":5,"byteOffset":48384,"byteLength":50700,"target":34962},{"buffer":5,"byteOffset":99084,"byteLength":50700,"target":34962},{"buffer":5,"byteOffset":149784,"byteLength":33800,"target":34962},{"buffer":6,"byteOffset":0,"byteLength":48384,"target":34963},{"buffer":6,"byteOffset":48384,"byteLength":50700,"target":34962},{"buffer":6,"byteOffset":99084,"byteLength":50700,"target":34962},{"buffer":6,"byteOffset":149784,"byteLength":33800,"target":34962}],"accessors":[{"bufferView":0,"byteOffset":0,"componentType":5123,"count":24192,"type":"SCALAR","min":[0],"max":[4224]},{"bufferView":1,"byteOffset":0,"componentType":5126,"count":4225,"type":"VEC3","min":[-137.5909881591797,-130.9998016357422,-137.5909881591797],"max":[137.5909881591797,130.9998016357422,137.5909881591797]},{"bufferView":2,"byteOffset":0,"componentType":5126,"count":4225,"type":"VEC3","min":[-1,-1,-1],"max":[1,1,1]},{"bufferView":3,"byteOffset":0,"componentType":5126,"count":4225,"type":"VEC2","min":[-0.0078125,0],"max":[1.0078125,1]},{"bufferView":4,"byteOffset":0,"componentType":5123,"count":24192,"type":"SCALAR","min":[0],"max":[4224]},{"bufferView":5,"byteOffset":0,"componentType":5126,"count":4225,"type":"VEC3","min":[-94.01094055175781,-89.5074234008789,-94.01094055175781],"max":[94.01094055175781,89.5074234008789,94.01094055175781]},{"bufferView":6,"byteOffset":0,"componentType":5126,"count":4225,"type":"VEC3","min":[-1,-1,-1],"max":[1,1,1]},{"bufferView":7,"byteOffset":0,"componentType":5126,"count":4225,"type":"VEC2","min":[-0.0078125,0],"max":[1.0078125,1]},{"bufferView":8,"byteOffset":0,"componentType":5123,"count":24192,"type":"SCALAR","min":[0],"max":[4224]},{"bufferView":9,"byteOffset":0,"componentType":5126,"count":4225,"type":"VEC3","min":[-69.53062438964844,-66.19981384277344,-69.53062438964844],"max":[69.53062438964844,66.19981384277344,69.53062438964844]},{"bufferView":10,"byteOffset":0,"componentType":5126,"count":4225,"type":"VEC3","min":[-1,-1,-1],"max":[1,1,1]},{"bufferView":11,"byteOffset":0,"componentType":5126,"count":4225,"type":"VEC2","min":[-0.0078125,0],"max":[1.0078125,1]},{"bufferView":12,"byteOffset":0,"componentType":5123,"count":24192,"type":"SCALAR","min":[0],"max":[4224]},{"bufferView":13,"byteOffset":0,"componentType":5126,"count":4225,"type":"VEC3","min":[-69.53062438964844,-66.19981384277344,-69.53062438964844],"max":[69.53062438964844,66.19981384277344,69.53062438964844]},{"bufferView":14,"byteOffset":0,"componentType":5126,"count":4225,"type":"VEC3","min":[-1,-1,-1],"max":[1,1,1]},{"bufferView":15,"byteOffset":0,"componentType":5126,"count":4225,"type":"VEC2","min":[-0.0078125,0],"max":[1.0078125,1]},{"bufferView":16,"byteOffset":0,"componentType":5123,"count":24192,"type":"SCALAR","min":[0],"max":[4224]},{"bufferView":17,"byteOffset":0,"componentType":5126,"count":4225,"type":"VEC3","min":[-69.53062438964844,-66.19981384277344,-69.53062438964844],"max":[69.53062438964844,66.19981384277344,69.53062438964844]},{"bufferView":18,"byteOffset":0,"componentType":5126,"count":4225,"type":"VEC3","min":[-1,-1,-1],"max":[1,1,1]},{"bufferView":19,"byteOffset":0,"componentType":5126,"count":4225,"type":"VEC2","min":[-0.0078125,0],"max":[1.0078125,1]},{"bufferView":20,"byteOffset":0,"componentType":5123,"count":24192,"type":"SCALAR","min":[0],"max":[4224]},{"bufferView":21,"byteOffset":0,"componentType":5126,"count":4225,"type":"VEC3","min":[-60.226985931396484,-57.341861724853516,-60.226985931396484],"max":[60.226985931396484,57.341861724853516,60.226985931396484]},{"bufferView":22,"byteOffset":0,"componentType":5126,"count":4225,"type":"VEC3","min":[-1,-1,-1],"max":[1,1,1]},{"bufferView":23,"byteOffset":0,"componentType":5126,"count":4225,"type":"VEC2","min":[-0.0078125,0],"max":[1.0078125,1]},{"bufferView":24,"byteOffset":0,"componentType":5123,"count":24192,"type":"SCALAR","min":[0],"max":[4224]},{"bufferView":25,"byteOffset":0,"componentType":5126,"count":4225,"type":"VEC3","min":[-137.5909881591797,-130.9998016357422,-137.5909881591797],"max":[137.5909881591797,130.9998016357422,137.5909881591797]},{"bufferView":26,"byteOffset":0,"componentType":5126,"count":4225,"type":"VEC3","min":[-1,-1,-1],"max":[1,1,1]},{"bufferView":27,"byteOffset":0,"componentType":5126,"count":4225,"type":"VEC2","min":[-0.0078125,0],"max":[1.0078125,1]}],"extensions":{"KHR_lights_punctual":{"lights":[{"type":"directional","name":"Directional Light","color":[1,1,1],"intensity":0.7},{"type":"point","name":"Point Light","color":[1,1,1],"intensity":1,"range":2000}]}},"extensionsUsed":["KHR_lights_punctual"]}